<mxfile host="app.diagrams.net" modified="2021-04-07T18:07:43.188Z" agent="5.0 (Windows NT 10.0; Win64; x64) AppleWebKit/537.36 (KHTML, like Gecko) Chrome/89.0.4389.90 Safari/537.36" etag="LoIGmwmSIJTs6donmUZ0" version="14.5.8" type="github">
  <diagram id="R2lEEEUBdFMjLlhIrx00" name="Page-1">
    <mxGraphModel dx="1958" dy="1582" grid="1" gridSize="10" guides="1" tooltips="1" connect="1" arrows="1" fold="1" page="1" pageScale="1" pageWidth="850" pageHeight="1100" math="0" shadow="0" extFonts="Permanent Marker^https://fonts.googleapis.com/css?family=Permanent+Marker">
      <root>
        <mxCell id="0" />
        <mxCell id="1" parent="0" />
        <mxCell id="is9QVf-iHY47cc1Ub4Ho-1" value="Patient" style="rounded=0;whiteSpace=wrap;html=1;" vertex="1" parent="1">
          <mxGeometry x="120" y="300" width="120" height="60" as="geometry" />
        </mxCell>
        <mxCell id="is9QVf-iHY47cc1Ub4Ho-2" value="Doctor" style="rounded=0;whiteSpace=wrap;html=1;" vertex="1" parent="1">
          <mxGeometry x="600" y="300" width="120" height="60" as="geometry" />
        </mxCell>
        <mxCell id="is9QVf-iHY47cc1Ub4Ho-3" value="Admin" style="rounded=0;whiteSpace=wrap;html=1;" vertex="1" parent="1">
          <mxGeometry x="360" y="-310" width="120" height="60" as="geometry" />
        </mxCell>
        <mxCell id="is9QVf-iHY47cc1Ub4Ho-4" value="Appointment" style="rounded=0;whiteSpace=wrap;html=1;" vertex="1" parent="1">
          <mxGeometry x="360" y="60" width="120" height="60" as="geometry" />
        </mxCell>
        <mxCell id="is9QVf-iHY47cc1Ub4Ho-5" value="Consults/Prescibes" style="rhombus;whiteSpace=wrap;html=1;" vertex="1" parent="1">
          <mxGeometry x="385" y="290" width="80" height="80" as="geometry" />
        </mxCell>
        <mxCell id="is9QVf-iHY47cc1Ub4Ho-6" value="Schedule" style="rhombus;whiteSpace=wrap;html=1;" vertex="1" parent="1">
          <mxGeometry x="270" y="170" width="80" height="80" as="geometry" />
        </mxCell>
        <mxCell id="is9QVf-iHY47cc1Ub4Ho-7" value="gives" style="rhombus;whiteSpace=wrap;html=1;" vertex="1" parent="1">
          <mxGeometry x="520" y="160" width="80" height="80" as="geometry" />
        </mxCell>
        <mxCell id="is9QVf-iHY47cc1Ub4Ho-8" value="check slots" style="rhombus;whiteSpace=wrap;html=1;" vertex="1" parent="1">
          <mxGeometry x="400" y="-150" width="80" height="80" as="geometry" />
        </mxCell>
        <mxCell id="is9QVf-iHY47cc1Ub4Ho-9" value="Choose Speciality" style="rhombus;whiteSpace=wrap;html=1;" vertex="1" parent="1">
          <mxGeometry x="200" y="-20" width="80" height="80" as="geometry" />
        </mxCell>
        <mxCell id="is9QVf-iHY47cc1Ub4Ho-10" value="Gender" style="ellipse;whiteSpace=wrap;html=1;" vertex="1" parent="1">
          <mxGeometry x="190" y="400" width="120" height="40" as="geometry" />
        </mxCell>
        <mxCell id="is9QVf-iHY47cc1Ub4Ho-11" value="Age" style="ellipse;whiteSpace=wrap;html=1;" vertex="1" parent="1">
          <mxGeometry x="50" y="400" width="120" height="40" as="geometry" />
        </mxCell>
        <mxCell id="is9QVf-iHY47cc1Ub4Ho-12" value="Patient _Name" style="ellipse;whiteSpace=wrap;html=1;" vertex="1" parent="1">
          <mxGeometry x="-100" y="400" width="120" height="40" as="geometry" />
        </mxCell>
        <mxCell id="is9QVf-iHY47cc1Ub4Ho-13" value="Patient_Id" style="ellipse;whiteSpace=wrap;html=1;" vertex="1" parent="1">
          <mxGeometry x="-100" y="320" width="120" height="40" as="geometry" />
        </mxCell>
        <mxCell id="is9QVf-iHY47cc1Ub4Ho-14" value="Password" style="ellipse;whiteSpace=wrap;html=1;" vertex="1" parent="1">
          <mxGeometry x="-100" y="240" width="120" height="40" as="geometry" />
        </mxCell>
        <mxCell id="is9QVf-iHY47cc1Ub4Ho-15" value="UserName" style="ellipse;whiteSpace=wrap;html=1;" vertex="1" parent="1">
          <mxGeometry x="-100" y="160" width="120" height="40" as="geometry" />
        </mxCell>
        <mxCell id="is9QVf-iHY47cc1Ub4Ho-17" value="username" style="ellipse;whiteSpace=wrap;html=1;" vertex="1" parent="1">
          <mxGeometry x="750" y="160" width="120" height="40" as="geometry" />
        </mxCell>
        <mxCell id="is9QVf-iHY47cc1Ub4Ho-18" value="password" style="ellipse;whiteSpace=wrap;html=1;" vertex="1" parent="1">
          <mxGeometry x="760" y="240" width="120" height="40" as="geometry" />
        </mxCell>
        <mxCell id="is9QVf-iHY47cc1Ub4Ho-19" value="Specality" style="ellipse;whiteSpace=wrap;html=1;" vertex="1" parent="1">
          <mxGeometry x="760" y="320" width="120" height="40" as="geometry" />
        </mxCell>
        <mxCell id="is9QVf-iHY47cc1Ub4Ho-20" value="Name" style="ellipse;whiteSpace=wrap;html=1;" vertex="1" parent="1">
          <mxGeometry x="760" y="400" width="120" height="40" as="geometry" />
        </mxCell>
        <mxCell id="is9QVf-iHY47cc1Ub4Ho-21" value="doctor_id" style="ellipse;whiteSpace=wrap;html=1;" vertex="1" parent="1">
          <mxGeometry x="570" y="400" width="120" height="40" as="geometry" />
        </mxCell>
        <mxCell id="is9QVf-iHY47cc1Ub4Ho-22" value="Username" style="ellipse;whiteSpace=wrap;html=1;" vertex="1" parent="1">
          <mxGeometry x="560" y="-380" width="120" height="50" as="geometry" />
        </mxCell>
        <mxCell id="is9QVf-iHY47cc1Ub4Ho-23" value="Password" style="ellipse;whiteSpace=wrap;html=1;" vertex="1" parent="1">
          <mxGeometry x="570" y="-300" width="120" height="50" as="geometry" />
        </mxCell>
        <mxCell id="is9QVf-iHY47cc1Ub4Ho-26" value="slot_time" style="ellipse;whiteSpace=wrap;html=1;" vertex="1" parent="1">
          <mxGeometry x="530" y="-30" width="120" height="50" as="geometry" />
        </mxCell>
        <mxCell id="is9QVf-iHY47cc1Ub4Ho-27" value="slot_date" style="ellipse;whiteSpace=wrap;html=1;" vertex="1" parent="1">
          <mxGeometry x="530" y="70" width="130" height="50" as="geometry" />
        </mxCell>
        <mxCell id="is9QVf-iHY47cc1Ub4Ho-28" value="" style="endArrow=none;html=1;exitX=0.875;exitY=1.05;exitDx=0;exitDy=0;exitPerimeter=0;" edge="1" parent="1" source="is9QVf-iHY47cc1Ub4Ho-1" target="is9QVf-iHY47cc1Ub4Ho-10">
          <mxGeometry width="50" height="50" relative="1" as="geometry">
            <mxPoint x="240" y="360" as="sourcePoint" />
            <mxPoint x="290" y="310" as="targetPoint" />
          </mxGeometry>
        </mxCell>
        <mxCell id="is9QVf-iHY47cc1Ub4Ho-30" value="" style="endArrow=none;html=1;exitX=0.5;exitY=1;exitDx=0;exitDy=0;" edge="1" parent="1" source="is9QVf-iHY47cc1Ub4Ho-1" target="is9QVf-iHY47cc1Ub4Ho-11">
          <mxGeometry width="50" height="50" relative="1" as="geometry">
            <mxPoint x="240" y="360" as="sourcePoint" />
            <mxPoint x="290" y="310" as="targetPoint" />
          </mxGeometry>
        </mxCell>
        <mxCell id="is9QVf-iHY47cc1Ub4Ho-31" value="" style="endArrow=none;html=1;entryX=-0.033;entryY=0.9;entryDx=0;entryDy=0;entryPerimeter=0;" edge="1" parent="1" target="is9QVf-iHY47cc1Ub4Ho-1">
          <mxGeometry width="50" height="50" relative="1" as="geometry">
            <mxPoint x="20" y="410" as="sourcePoint" />
            <mxPoint x="70" y="360" as="targetPoint" />
          </mxGeometry>
        </mxCell>
        <mxCell id="is9QVf-iHY47cc1Ub4Ho-32" value="" style="endArrow=none;html=1;entryX=-0.025;entryY=0.633;entryDx=0;entryDy=0;exitX=1;exitY=0.5;exitDx=0;exitDy=0;entryPerimeter=0;" edge="1" parent="1" source="is9QVf-iHY47cc1Ub4Ho-13" target="is9QVf-iHY47cc1Ub4Ho-1">
          <mxGeometry width="50" height="50" relative="1" as="geometry">
            <mxPoint x="20" y="345" as="sourcePoint" />
            <mxPoint x="70" y="295" as="targetPoint" />
          </mxGeometry>
        </mxCell>
        <mxCell id="is9QVf-iHY47cc1Ub4Ho-33" value="" style="endArrow=none;html=1;entryX=0;entryY=0;entryDx=0;entryDy=0;exitX=0.975;exitY=0.775;exitDx=0;exitDy=0;exitPerimeter=0;" edge="1" parent="1" source="is9QVf-iHY47cc1Ub4Ho-14" target="is9QVf-iHY47cc1Ub4Ho-1">
          <mxGeometry width="50" height="50" relative="1" as="geometry">
            <mxPoint x="30" y="300" as="sourcePoint" />
            <mxPoint x="80" y="250" as="targetPoint" />
          </mxGeometry>
        </mxCell>
        <mxCell id="is9QVf-iHY47cc1Ub4Ho-34" value="" style="endArrow=none;html=1;exitX=1;exitY=0.75;exitDx=0;exitDy=0;exitPerimeter=0;" edge="1" parent="1" source="is9QVf-iHY47cc1Ub4Ho-15" target="is9QVf-iHY47cc1Ub4Ho-1">
          <mxGeometry width="50" height="50" relative="1" as="geometry">
            <mxPoint x="60" y="230" as="sourcePoint" />
            <mxPoint x="110" y="180" as="targetPoint" />
          </mxGeometry>
        </mxCell>
        <mxCell id="is9QVf-iHY47cc1Ub4Ho-35" value="" style="endArrow=none;html=1;entryX=0.75;entryY=1;entryDx=0;entryDy=0;exitX=1;exitY=0;exitDx=0;exitDy=0;" edge="1" parent="1" source="is9QVf-iHY47cc1Ub4Ho-21" target="is9QVf-iHY47cc1Ub4Ho-2">
          <mxGeometry width="50" height="50" relative="1" as="geometry">
            <mxPoint x="660" y="420" as="sourcePoint" />
            <mxPoint x="710" y="370" as="targetPoint" />
          </mxGeometry>
        </mxCell>
        <mxCell id="is9QVf-iHY47cc1Ub4Ho-36" value="" style="endArrow=none;html=1;exitX=1;exitY=0;exitDx=0;exitDy=0;entryX=0.075;entryY=0.725;entryDx=0;entryDy=0;entryPerimeter=0;" edge="1" parent="1" source="is9QVf-iHY47cc1Ub4Ho-2" target="is9QVf-iHY47cc1Ub4Ho-18">
          <mxGeometry width="50" height="50" relative="1" as="geometry">
            <mxPoint x="710" y="310" as="sourcePoint" />
            <mxPoint x="760" y="260" as="targetPoint" />
          </mxGeometry>
        </mxCell>
        <mxCell id="is9QVf-iHY47cc1Ub4Ho-37" value="" style="endArrow=none;html=1;entryX=0;entryY=0.5;entryDx=0;entryDy=0;exitX=1;exitY=0.617;exitDx=0;exitDy=0;exitPerimeter=0;" edge="1" parent="1" source="is9QVf-iHY47cc1Ub4Ho-2" target="is9QVf-iHY47cc1Ub4Ho-19">
          <mxGeometry width="50" height="50" relative="1" as="geometry">
            <mxPoint x="720" y="360" as="sourcePoint" />
            <mxPoint x="770" y="310" as="targetPoint" />
          </mxGeometry>
        </mxCell>
        <mxCell id="is9QVf-iHY47cc1Ub4Ho-38" value="" style="endArrow=none;html=1;exitX=1;exitY=1;exitDx=0;exitDy=0;entryX=0;entryY=0;entryDx=0;entryDy=0;" edge="1" parent="1" source="is9QVf-iHY47cc1Ub4Ho-2" target="is9QVf-iHY47cc1Ub4Ho-20">
          <mxGeometry width="50" height="50" relative="1" as="geometry">
            <mxPoint x="730" y="490" as="sourcePoint" />
            <mxPoint x="780" y="440" as="targetPoint" />
          </mxGeometry>
        </mxCell>
        <mxCell id="is9QVf-iHY47cc1Ub4Ho-39" value="" style="endArrow=none;html=1;exitX=0.417;exitY=0;exitDx=0;exitDy=0;exitPerimeter=0;" edge="1" parent="1" source="is9QVf-iHY47cc1Ub4Ho-2" target="is9QVf-iHY47cc1Ub4Ho-17">
          <mxGeometry width="50" height="50" relative="1" as="geometry">
            <mxPoint x="650" y="270" as="sourcePoint" />
            <mxPoint x="700" y="220" as="targetPoint" />
            <Array as="points" />
          </mxGeometry>
        </mxCell>
        <mxCell id="is9QVf-iHY47cc1Ub4Ho-40" value="" style="endArrow=none;html=1;entryX=0.5;entryY=1;entryDx=0;entryDy=0;" edge="1" parent="1" target="is9QVf-iHY47cc1Ub4Ho-26">
          <mxGeometry width="50" height="50" relative="1" as="geometry">
            <mxPoint x="480" y="60" as="sourcePoint" />
            <mxPoint x="490" y="30" as="targetPoint" />
          </mxGeometry>
        </mxCell>
        <mxCell id="is9QVf-iHY47cc1Ub4Ho-41" value="" style="endArrow=none;html=1;entryX=0;entryY=0.5;entryDx=0;entryDy=0;exitX=1;exitY=0.75;exitDx=0;exitDy=0;" edge="1" parent="1" source="is9QVf-iHY47cc1Ub4Ho-4" target="is9QVf-iHY47cc1Ub4Ho-27">
          <mxGeometry width="50" height="50" relative="1" as="geometry">
            <mxPoint x="490" y="120" as="sourcePoint" />
            <mxPoint x="540" y="70" as="targetPoint" />
          </mxGeometry>
        </mxCell>
        <mxCell id="is9QVf-iHY47cc1Ub4Ho-42" value="" style="endArrow=none;html=1;exitX=1;exitY=0;exitDx=0;exitDy=0;entryX=0;entryY=0.5;entryDx=0;entryDy=0;" edge="1" parent="1" source="is9QVf-iHY47cc1Ub4Ho-3" target="is9QVf-iHY47cc1Ub4Ho-22">
          <mxGeometry width="50" height="50" relative="1" as="geometry">
            <mxPoint x="500" y="-300" as="sourcePoint" />
            <mxPoint x="550" y="-350" as="targetPoint" />
          </mxGeometry>
        </mxCell>
        <mxCell id="is9QVf-iHY47cc1Ub4Ho-44" value="" style="endArrow=none;html=1;exitX=1;exitY=0.5;exitDx=0;exitDy=0;" edge="1" parent="1" source="is9QVf-iHY47cc1Ub4Ho-3" target="is9QVf-iHY47cc1Ub4Ho-23">
          <mxGeometry width="50" height="50" relative="1" as="geometry">
            <mxPoint x="520" y="-270" as="sourcePoint" />
            <mxPoint x="570" y="-320" as="targetPoint" />
          </mxGeometry>
        </mxCell>
        <mxCell id="is9QVf-iHY47cc1Ub4Ho-45" value="" style="endArrow=classic;html=1;exitX=1;exitY=0.5;exitDx=0;exitDy=0;entryX=0;entryY=0.5;entryDx=0;entryDy=0;" edge="1" parent="1" source="is9QVf-iHY47cc1Ub4Ho-1" target="is9QVf-iHY47cc1Ub4Ho-5">
          <mxGeometry width="50" height="50" relative="1" as="geometry">
            <mxPoint x="440" y="300" as="sourcePoint" />
            <mxPoint x="490" y="250" as="targetPoint" />
          </mxGeometry>
        </mxCell>
        <mxCell id="is9QVf-iHY47cc1Ub4Ho-55" value="Many To Many" style="edgeLabel;html=1;align=center;verticalAlign=middle;resizable=0;points=[];" vertex="1" connectable="0" parent="is9QVf-iHY47cc1Ub4Ho-45">
          <mxGeometry x="0.269" y="-5" relative="1" as="geometry">
            <mxPoint x="98" y="45" as="offset" />
          </mxGeometry>
        </mxCell>
        <mxCell id="is9QVf-iHY47cc1Ub4Ho-46" value="" style="endArrow=classic;html=1;exitX=0;exitY=0.5;exitDx=0;exitDy=0;" edge="1" parent="1" source="is9QVf-iHY47cc1Ub4Ho-2">
          <mxGeometry width="50" height="50" relative="1" as="geometry">
            <mxPoint x="440" y="300" as="sourcePoint" />
            <mxPoint x="460" y="330" as="targetPoint" />
          </mxGeometry>
        </mxCell>
        <mxCell id="is9QVf-iHY47cc1Ub4Ho-47" value="" style="endArrow=none;html=1;exitX=1;exitY=0;exitDx=0;exitDy=0;entryX=0;entryY=1;entryDx=0;entryDy=0;" edge="1" parent="1" source="is9QVf-iHY47cc1Ub4Ho-1" target="is9QVf-iHY47cc1Ub4Ho-6">
          <mxGeometry width="50" height="50" relative="1" as="geometry">
            <mxPoint x="250" y="290" as="sourcePoint" />
            <mxPoint x="290" y="230" as="targetPoint" />
            <Array as="points">
              <mxPoint x="280" y="250" />
            </Array>
          </mxGeometry>
        </mxCell>
        <mxCell id="is9QVf-iHY47cc1Ub4Ho-48" value="" style="endArrow=classic;html=1;entryX=0.1;entryY=1.05;entryDx=0;entryDy=0;entryPerimeter=0;" edge="1" parent="1" target="is9QVf-iHY47cc1Ub4Ho-4">
          <mxGeometry width="50" height="50" relative="1" as="geometry">
            <mxPoint x="330" y="180" as="sourcePoint" />
            <mxPoint x="380" y="130" as="targetPoint" />
          </mxGeometry>
        </mxCell>
        <mxCell id="is9QVf-iHY47cc1Ub4Ho-49" value="" style="endArrow=none;html=1;" edge="1" parent="1" target="is9QVf-iHY47cc1Ub4Ho-9">
          <mxGeometry width="50" height="50" relative="1" as="geometry">
            <mxPoint x="160" y="300" as="sourcePoint" />
            <mxPoint x="210" y="250" as="targetPoint" />
          </mxGeometry>
        </mxCell>
        <mxCell id="is9QVf-iHY47cc1Ub4Ho-50" value="" style="endArrow=none;html=1;entryX=0.075;entryY=1.05;entryDx=0;entryDy=0;entryPerimeter=0;" edge="1" parent="1" source="is9QVf-iHY47cc1Ub4Ho-9" target="is9QVf-iHY47cc1Ub4Ho-3">
          <mxGeometry width="50" height="50" relative="1" as="geometry">
            <mxPoint x="440" y="-70" as="sourcePoint" />
            <mxPoint x="490" y="-120" as="targetPoint" />
            <Array as="points">
              <mxPoint x="260" y="-7" />
            </Array>
          </mxGeometry>
        </mxCell>
        <mxCell id="is9QVf-iHY47cc1Ub4Ho-51" value="" style="endArrow=none;html=1;" edge="1" parent="1">
          <mxGeometry width="50" height="50" relative="1" as="geometry">
            <mxPoint x="440" y="-150" as="sourcePoint" />
            <mxPoint x="440" y="-240" as="targetPoint" />
          </mxGeometry>
        </mxCell>
        <mxCell id="is9QVf-iHY47cc1Ub4Ho-52" value="" style="endArrow=none;html=1;entryX=0.692;entryY=-0.017;entryDx=0;entryDy=0;entryPerimeter=0;" edge="1" parent="1" target="is9QVf-iHY47cc1Ub4Ho-4">
          <mxGeometry width="50" height="50" relative="1" as="geometry">
            <mxPoint x="440" y="-70" as="sourcePoint" />
            <mxPoint x="490" y="-120" as="targetPoint" />
          </mxGeometry>
        </mxCell>
        <mxCell id="is9QVf-iHY47cc1Ub4Ho-53" value="" style="endArrow=none;html=1;exitX=0.25;exitY=0;exitDx=0;exitDy=0;" edge="1" parent="1" source="is9QVf-iHY47cc1Ub4Ho-2" target="is9QVf-iHY47cc1Ub4Ho-7">
          <mxGeometry width="50" height="50" relative="1" as="geometry">
            <mxPoint x="590" y="290" as="sourcePoint" />
            <mxPoint x="640" y="240" as="targetPoint" />
          </mxGeometry>
        </mxCell>
        <mxCell id="is9QVf-iHY47cc1Ub4Ho-54" value="" style="endArrow=classic;html=1;entryX=1;entryY=1;entryDx=0;entryDy=0;" edge="1" parent="1" source="is9QVf-iHY47cc1Ub4Ho-7" target="is9QVf-iHY47cc1Ub4Ho-4">
          <mxGeometry width="50" height="50" relative="1" as="geometry">
            <mxPoint x="470" y="170" as="sourcePoint" />
            <mxPoint x="520" y="120" as="targetPoint" />
          </mxGeometry>
        </mxCell>
        <mxCell id="is9QVf-iHY47cc1Ub4Ho-56" value="one to one" style="text;html=1;align=center;verticalAlign=middle;resizable=0;points=[];autosize=1;strokeColor=none;" vertex="1" parent="1">
          <mxGeometry x="205" y="190" width="70" height="20" as="geometry" />
        </mxCell>
        <mxCell id="is9QVf-iHY47cc1Ub4Ho-57" value="one to one" style="text;html=1;align=center;verticalAlign=middle;resizable=0;points=[];autosize=1;strokeColor=none;" vertex="1" parent="1">
          <mxGeometry x="130" width="70" height="20" as="geometry" />
        </mxCell>
        <mxCell id="is9QVf-iHY47cc1Ub4Ho-58" value="one to many" style="text;html=1;align=center;verticalAlign=middle;resizable=0;points=[];autosize=1;strokeColor=none;" vertex="1" parent="1">
          <mxGeometry x="450" y="200" width="80" height="20" as="geometry" />
        </mxCell>
        <mxCell id="is9QVf-iHY47cc1Ub4Ho-62" value="one to many" style="text;html=1;align=center;verticalAlign=middle;resizable=0;points=[];autosize=1;strokeColor=none;" vertex="1" parent="1">
          <mxGeometry x="370" y="-70" width="80" height="20" as="geometry" />
        </mxCell>
      </root>
    </mxGraphModel>
  </diagram>
</mxfile>
